<svg xmlns="http://www.w3.org/2000/svg" width="53.166" height="67.052" viewBox="0 0 53.166 67.052">
    <defs>
        <style>
            .cls-1{fill:#5378ae}
        </style>
    </defs>
    <g id="curriculum-vitae" transform="translate(-53.013)">
        <path id="Path_808" d="M102.034 216.467h38.62a.982.982 0 1 0 0-1.964h-38.62a.982.982 0 1 0 0 1.964z" class="cls-1" transform="translate(-41.748 -186.412)"/>
        <path id="Path_809" d="M102.034 284.1h38.62a.982.982 0 0 0 0-1.964h-38.62a.982.982 0 1 0 0 1.964z" class="cls-1" transform="translate(-41.748 -245.186)"/>
        <path id="Path_810" d="M102.034 351.73h38.62a.982.982 0 1 0 0-1.964h-38.62a.982.982 0 1 0 0 1.964z" class="cls-1" transform="translate(-41.748 -303.961)"/>
        <path id="Path_811" d="M102.034 419.36h19.31a.982.982 0 0 0 0-1.964h-19.31a.982.982 0 0 0 0 1.964z" class="cls-1" transform="translate(-41.748 -362.734)"/>
        <path id="Path_812" d="M105.892 15.577L90.6.288A.982.982 0 0 0 89.908 0H57.462a4.454 4.454 0 0 0-4.449 4.449V11.7a.982.982 0 0 0 1.964 0V4.449a2.488 2.488 0 0 1 2.485-2.485h31.463v11.688a3.606 3.606 0 0 0 3.6 3.6h11.688v32.86a.982.982 0 1 0 1.964 0v-33.84a.983.983 0 0 0-.285-.695zm-15-1.925V3.353l11.934 11.937h-10.3a1.639 1.639 0 0 1-1.636-1.638z" class="cls-1"/>
        <path id="Path_813" d="M105.2 159.383a.982.982 0 0 0-.982.982v7.335a2.488 2.488 0 0 1-2.485 2.485h-44.27a2.488 2.488 0 0 1-2.485-2.485v-45.78a.982.982 0 0 0-1.964 0v45.78a4.454 4.454 0 0 0 4.449 4.449h44.268a4.454 4.454 0 0 0 4.449-4.449v-7.337a.982.982 0 0 0-.98-.98z" class="cls-1" transform="translate(-.001 -105.1)"/>
        <path id="Path_814" d="M109.53 55.307a8.479 8.479 0 1 0-8.479-8.479 8.489 8.489 0 0 0 8.479 8.479zM108 45.178a1.534 1.534 0 1 1 1.534 1.534A1.536 1.536 0 0 1 108 45.178zm1.534 3.5a5.973 5.973 0 0 1 4.85 2.5 6.588 6.588 0 0 1-.525.523l-.017.015-.015.013a6.538 6.538 0 0 1-4.248 1.618h-.089a6.539 6.539 0 0 1-4.247-1.617l-.019-.017-.014-.012a6.607 6.607 0 0 1-.526-.523 5.972 5.972 0 0 1 4.846-2.502zm0-8.364a6.515 6.515 0 0 1 5.966 9.116 7.955 7.955 0 0 0-3.145-2.195 3.5 3.5 0 1 0-5.656 0 7.955 7.955 0 0 0-3.144 2.194 6.515 6.515 0 0 1 5.972-9.117z" class="cls-1" transform="translate(-41.747 -33.326)"/>
    </g>
</svg>
