<svg xmlns="http://www.w3.org/2000/svg" id="customer" width="76.037" height="61.563" viewBox="0 0 76.037 61.563">
    <defs>
        <style>
            .cls-1{fill:#5378ae}
        </style>
    </defs>
    <path id="Path_761" d="M200.58 62.036l-.879 5.006a.9.9 0 0 0 .359.883.915.915 0 0 0 .957.071l4.539-2.354 4.527 2.375a.915.915 0 0 0 .957-.066.9.9 0 0 0 .364-.881l-.854-5.01 3.676-3.538a.9.9 0 0 0 .232-.924.907.907 0 0 0-.732-.615l-5.066-.743-2.255-4.562a.91.91 0 0 0-.814-.5.91.91 0 0 0-.814.5l-2.277 4.548-5.07.718a.907.907 0 0 0-.735.612.9.9 0 0 0 .228.925zm2.649-4.092a.908.908 0 0 0 .686-.492l1.671-3.339 1.655 3.347a.908.908 0 0 0 .683.495l3.717.545-2.7 2.6a.9.9 0 0 0-.263.8l.626 3.676-3.322-1.743a.915.915 0 0 0-.846 0l-3.33 1.727.644-3.673a.9.9 0 0 0-.26-.8l-2.684-2.609z" class="cls-1" transform="translate(-167.62 -51.174)"/>
    <path id="Path_762" d="M358.959 90.092l-.771 4.4a.9.9 0 0 0 .359.883.915.915 0 0 0 .957.071l3.988-2.068 3.977 2.087a.915.915 0 0 0 .957-.066.9.9 0 0 0 .364-.881l-.75-4.4 3.229-3.108a.9.9 0 0 0 .232-.924.907.907 0 0 0-.732-.615l-4.451-.653-1.981-4.008a.909.909 0 0 0-.814-.5.909.909 0 0 0-.814.5l-2 4-4.454.631a.907.907 0 0 0-.735.612.9.9 0 0 0 .228.925zm2.477-3.573a.908.908 0 0 0 .686-.492l1.394-2.786 1.381 2.793a.908.908 0 0 0 .683.495l3.1.455-2.251 2.166a.9.9 0 0 0-.263.8l.523 3.068-2.772-1.454a.914.914 0 0 0-.846 0L360.294 93l.538-3.066a.9.9 0 0 0-.259-.8l-2.24-2.176z" class="cls-1" transform="translate(-302.387 -75.925)"/>
    <path id="Path_763" d="M53.081 90.092l-.771 4.4a.9.9 0 0 0 .359.883.915.915 0 0 0 .957.071l3.987-2.068 3.978 2.087a.915.915 0 0 0 .957-.066.9.9 0 0 0 .364-.881l-.75-4.4 3.229-3.108a.9.9 0 0 0 .232-.924.907.907 0 0 0-.732-.615l-4.452-.653-1.981-4.008a.909.909 0 0 0-.814-.5.91.91 0 0 0-.814.5l-2 4-4.454.631a.907.907 0 0 0-.735.612.9.9 0 0 0 .228.925zm2.477-3.573a.908.908 0 0 0 .686-.492l1.395-2.786 1.381 2.793a.908.908 0 0 0 .683.495l3.1.455-2.249 2.166a.9.9 0 0 0-.263.8l.523 3.068-2.772-1.454a.914.914 0 0 0-.846 0L54.416 93l.537-3.066a.9.9 0 0 0-.259-.8l-2.24-2.176z" class="cls-1" transform="translate(-42.84 -75.925)"/>
    <path id="Path_764" d="M215.178 187.146a7.267 7.267 0 0 0-7.287 7.23v4.219a7.287 7.287 0 0 0 14.574 0v-4.219a7.267 7.267 0 0 0-7.287-7.23zm5.469 11.449a5.47 5.47 0 0 1-10.939 0v-4.219a5.47 5.47 0 0 1 10.939 0z" class="cls-1" transform="translate(-177.159 -166.712)"/>
    <path id="Path_765" d="M367.726 210.936a6.689 6.689 0 0 0-6.707 6.655v3.835a6.707 6.707 0 0 0 13.414 0v-3.835a6.689 6.689 0 0 0-6.707-6.655zm4.89 10.49a4.89 4.89 0 0 1-9.779 0v-3.836a4.89 4.89 0 0 1 9.779 0z" class="cls-1" transform="translate(-307.093 -186.927)"/>
    <path id="Path_766" d="M73.364 313.385H70.92a.824.824 0 0 1-.826-.819.91.91 0 0 0-1.764-.3l-.972 2.686a1.825 1.825 0 0 1-3.433-.022L63 312.251a.912.912 0 0 0-1.5-.344l-.022.022a.9.9 0 0 0-.266.638.824.824 0 0 1-.826.819H57.9a7.8 7.8 0 0 0-1.171.089 8.349 8.349 0 0 0-5.208-1.814h-2.686a1 1 0 0 1-1-.992.91.91 0 0 0-1.764-.3L45 313.319a2.1 2.1 0 0 1-3.948-.025l-1.022-2.943a.912.912 0 0 0-1.5-.343l-.024.024a.9.9 0 0 0-.265.637 1 1 0 0 1-1 .992h-2.727a8.35 8.35 0 0 0-5.207 1.815 7.785 7.785 0 0 0-1.171-.089h-2.444a.824.824 0 0 1-.826-.819.91.91 0 0 0-1.764-.3l-.971 2.686a1.825 1.825 0 0 1-3.433-.022l-.929-2.675a.912.912 0 0 0-1.5-.344l-.022.022a.9.9 0 0 0-.266.637.823.823 0 0 1-.826.819h-2.481A7.653 7.653 0 0 0 5 321v10.547a.905.905 0 0 0 .909.9h74.22a.905.905 0 0 0 .909-.9V321a7.652 7.652 0 0 0-7.674-7.615zm-47.2 6.559v10.7H6.818V321a5.84 5.84 0 0 1 5.856-5.81h2.479a2.643 2.643 0 0 0 1.542-.493l.284.819a3.647 3.647 0 0 0 6.863.043l.311-.86a2.644 2.644 0 0 0 1.454.491h2.076a8.192 8.192 0 0 0-1.519 4.754zm31.891 10.7H27.982v-10.7a6.514 6.514 0 0 1 6.532-6.481h2.726a2.817 2.817 0 0 0 1.742-.6l.353 1.018a3.921 3.921 0 0 0 7.377.047l.384-1.062a2.815 2.815 0 0 0 1.648.6h2.778a6.514 6.514 0 0 1 6.532 6.481zm21.164 0H59.873v-10.7a8.192 8.192 0 0 0-1.519-4.756h2.026a2.643 2.643 0 0 0 1.542-.493l.284.819a3.647 3.647 0 0 0 6.863.043l.311-.86a2.644 2.644 0 0 0 1.454.491h2.529A5.84 5.84 0 0 1 79.22 321z" class="cls-1" transform="translate(-5 -270.885)"/>
    <path id="Path_767" d="M62.422 217.591v3.835a6.707 6.707 0 0 0 13.414 0v-3.835a6.707 6.707 0 0 0-13.414 0zm11.6 0v3.835a4.89 4.89 0 0 1-9.779 0v-3.835a4.89 4.89 0 0 1 9.779 0z" class="cls-1" transform="translate(-53.724 -186.927)"/>
</svg>
