<svg xmlns="http://www.w3.org/2000/svg" width="114" height="114" viewBox="0 0 114 114">
    <defs>
        <style>
            .cls-2{fill:#5378ae}
        </style>
    </defs>
    <g id="Group_514" transform="matrix(1,0,0,1,-0.3,0)">
        <g id="info" transform="translate(3.7,3.7)">
            <path id="Path_797" d="M 244.8 111.7 a 5.1 5.1 0 1 1 -5.1 -5.1 a 5.1 5.1 0 0 1 5.1 5.1 z m 0 0" class="cls-2" transform="translate(-186.4,-89.7)"/>
            <path id="Path_798" d="M 215.4 242.8 a 3.8 3.8 0 0 1 -3.8 -3.8 v -39.4 h -5.1 a 3.8 3.8 0 1 1 0 -7.6 h 8.9 a 3.8 3.8 0 0 1 3.8 3.8 v 43.2 a 3.8 3.8 0 0 1 -3.8 3.8 z m 0 0" class="cls-2" transform="translate(-162,-154.8)"/>
            <path id="Path_800" d="M 218.7 380.9 h -22.9 a 3.8 3.8 0 0 1 0 -7.6 h 22.9 a 3.8 3.8 0 1 1 0 7.6 z m 0 0" class="cls-2" transform="translate(-153.9,-292.9)"/>
        </g>
    </g>
</svg>
