<svg width="24" height="24" xmlns="http://www.w3.org/2000/svg">

 <g>
  <title>background</title>
  <rect fill="none" id="canvas_background" height="26" width="26" y="-1" x="-1"/>
 </g>
 <g>
  <title>Layer 1</title>
  <path fill="#3858aa" stroke="null" id="svg_1" d="m14.678059,9.935907l-2.084932,0l0,-1.477352c0,-0.554817 0.340353,-0.684166 0.580072,-0.684166c0.239174,0 1.471316,0 1.471316,0l0,-2.439074l-2.026298,-0.008545c-2.249382,0 -2.761274,1.81914 -2.761274,2.983284l0,1.625853l-1.300867,0l0,2.513325l1.300867,0c0,3.225482 0,7.111854 0,7.111854l2.736184,0c0,0 0,-3.924676 0,-7.111854l1.846304,0l0.238629,-2.513325z"/>
 </g>
</svg>