<svg width="24" height="24" xmlns="http://www.w3.org/2000/svg">

 <g>
  <title>background</title>
  <rect fill="none" id="canvas_background" height="26" width="26" y="-1" x="-1"/>
 </g>
 <g>
  <title>Layer 1</title>
  <path stroke="null" id="svg_2" fill="#2CB742" d="m16.076517,7.920731c-1.110907,-1.180612 -2.590283,-1.829998 -4.162538,-1.829998c-3.245161,0 -5.885848,2.799834 -5.885848,6.240484c0,1.099083 0.270452,2.172924 0.784811,3.120256l-0.835136,3.232694l3.120548,-0.868622c0.859021,0.497525 1.826698,0.759004 2.812991,0.759004l0.00266,0c3.242528,0 5.941492,-2.799834 5.941492,-6.240484c-0.000026,-1.666967 -0.668099,-3.232694 -1.77898,-4.413333z"/>
  <path stroke="null" id="svg_3" fill="#FFFFFF" d="m11.879924,18.022453c-0.957961,0 -1.895745,-0.272817 -2.712327,-0.787819l-0.193312,-0.122615l-2.014054,0.56095l0.536716,-2.087596l-0.126964,-0.214569c-0.533793,-0.901269 -0.813715,-1.94044 -0.813715,-3.010301c0,-3.117601 2.389156,-5.655772 5.32655,-5.655772c1.422484,0 2.758414,0.588566 3.762602,1.658397c1.004104,1.069862 1.621613,2.489208 1.618746,4.000479c0,3.120706 -2.4498,5.658847 -5.384243,5.658847z"/>
  <path stroke="null" id="svg_4" fill="#2CB742" d="m14.416485,13.567369c-0.136508,-0.079556 -0.814092,-0.4608 -0.940689,-0.511908c-0.126597,-0.054072 -0.218408,-0.079639 -0.310243,0.079639s-0.35494,0.511908 -0.436888,0.620051c-0.07941,0.105235 -0.161334,0.119445 -0.297842,0.039806c-0.80916,-0.46357 -1.340301,-0.82764 -1.873956,-1.877217c-0.141488,-0.278724 0.141512,-0.258835 0.404568,-0.861767c0.044721,-0.10529 0.022385,-0.196287 -0.012425,-0.275926c-0.034713,-0.079639 -0.310243,-0.856116 -0.424415,-1.171848c-0.111682,-0.307172 -0.225853,-0.264513 -0.310267,-0.270192c-0.07941,-0.005706 -0.171294,-0.005706 -0.26308,-0.005706c-0.091859,0 -0.240768,0.039834 -0.367365,0.196259c-0.126573,0.159279 -0.481537,0.54044 -0.481537,1.316916s0.493913,1.527386 0.560947,1.632593c0.069475,0.105207 0.970519,1.698022 2.353003,2.383502c0.873728,0.432324 1.216267,0.469249 1.653131,0.395316c0.265546,-0.045512 0.81414,-0.381133 0.928288,-0.750881c0.114172,-0.369721 0.114172,-0.685397 0.07941,-0.750826c-0.032247,-0.071191 -0.124131,-0.110969 -0.260639,-0.18781z"/>
 </g>
</svg>